<?xml version="1.0" encoding="utf-8"?>
<!-- Generator: Adobe Illustrator 17.0.2, SVG Export Plug-In . SVG Version: 6.00 Build 0)  -->
<!DOCTYPE svg PUBLIC "-//W3C//DTD SVG 1.1//EN" "http://www.w3.org/Graphics/SVG/1.1/DTD/svg11.dtd">
<svg version="1.1" id="Layer_1" xmlns="http://www.w3.org/2000/svg" xmlns:xlink="http://www.w3.org/1999/xlink" x="0px" y="0px"
	 width="231.5px" height="244.072px" viewBox="0 0 231.5 244.072" enable-background="new 0 0 231.5 244.072" xml:space="preserve">
<g>
	<path fill="#FFFFFF" d="M230.167,122.385c0,27.816-9.981,53.369-26.661,73.191c-3.235-1.663-7.716-3.927-12.892-6.238
		c-12.845-5.868-29.849-12.383-42.603-12.707c0,0-8.964-3.188-9.241-22.826c0,0,8.086-4.898,7.485-24.49c0,0,6.377-2.31,6.377-7.208
		c0,0,2.31-11.228,4.205-16.034c0,0,1.479-5.868-3.558-4.713c0,0,8.363-34.701-6.562-45.19c-1.756-1.201,0,0-2.31-1.848
		c-7.023-3.419-11.921-6.885-15.895-8.456c-1.71-0.786-3.373-0.97-4.898-0.97c-5.868-1.294-11.459,0.416-11.459,0.416
		c-5.868,1.201-14.463,4.343-28.186,13.862c-14.925,10.397-5.684,42.187-5.684,42.187c-4.99-1.155-3.558,4.713-3.558,4.713
		c1.941,4.806,4.251,16.034,4.251,16.034c0,4.898,6.33,7.208,6.33,7.208c-0.554,19.592,7.532,24.49,7.532,24.49
		c-0.277,19.638-9.241,22.826-9.241,22.826c-17.512,1.663-32.529,7.301-42.972,12.337c-5.452,2.634-9.657,5.083-12.383,6.793
		c-16.773-19.869-26.8-45.468-26.8-73.376c0-63.072,51.29-114.408,114.362-114.408C178.878,7.977,230.167,59.313,230.167,122.385z"
		/>
	<path fill="#FFFFFF" d="M115.494,236.991C51.811,236.991,0,185.18,0,121.497C0,57.811,51.811,6,115.494,6
		s115.494,51.811,115.494,115.497C230.989,185.18,179.178,236.991,115.494,236.991z M115.494,10.621
		c-61.134,0-110.874,49.738-110.874,110.876c0,61.136,49.74,110.874,110.874,110.874s110.874-49.738,110.874-110.874
		C226.368,60.358,176.628,10.621,115.494,10.621z"/>
</g>
</svg>
