<?xml version="1.0" encoding="utf-8"?>
<!-- Generator: Adobe Illustrator 17.0.2, SVG Export Plug-In . SVG Version: 6.00 Build 0)  -->
<!DOCTYPE svg PUBLIC "-//W3C//DTD SVG 1.1//EN" "http://www.w3.org/Graphics/SVG/1.1/DTD/svg11.dtd">
<svg version="1.1" id="Layer_1" xmlns="http://www.w3.org/2000/svg" xmlns:xlink="http://www.w3.org/1999/xlink" x="0px" y="0px"
	 width="226.753px" height="242.42px" viewBox="0 0 226.753 242.42" enable-background="new 0 0 226.753 242.42"
	 xml:space="preserve">
<g>
	<polygon fill="#FFFFFF" points="59.587,75.17 71.221,63.868 125.401,120.707 161.964,85.806 170.606,96.443 124.443,141.951 	"/>
	<path fill="#FFFFFF" d="M125.401,219.094c-42.286,0-80.44-26.674-94.942-66.374l11.242-4.106
		c12.784,34.998,46.419,58.514,83.7,58.514c49.118,0,89.079-39.961,89.079-89.079c0-49.122-39.961-89.083-89.079-89.083
		s-89.079,39.961-89.079,89.083v3.572H24.355v-3.572C24.355,62.332,69.684,17,125.401,17s101.045,45.332,101.045,101.049
		S181.118,219.094,125.401,219.094z"/>
	<polygon fill="#FFFFFF" points="30.96,136.329 0,100.063 8.76,90.835 31.417,120.624 	"/>
	<polygon fill="#FFFFFF" points="30.96,136.329 61.921,100.063 53.16,90.835 30.96,120.005 	"/>
</g>
</svg>
