<?xml version="1.0" encoding="utf-8"?>
<!-- Generator: Adobe Illustrator 17.0.2, SVG Export Plug-In . SVG Version: 6.00 Build 0)  -->
<!DOCTYPE svg PUBLIC "-//W3C//DTD SVG 1.1//EN" "http://www.w3.org/Graphics/SVG/1.1/DTD/svg11.dtd">
<svg version="1.1" id="Layer_1" xmlns="http://www.w3.org/2000/svg" xmlns:xlink="http://www.w3.org/1999/xlink" x="0px" y="0px"
	 width="226.066px" height="242.92px" viewBox="0 0 226.066 242.92" enable-background="new 0 0 226.066 242.92"
	 xml:space="preserve">
<path fill="#FFFFFF" d="M113.377,242.92C50.848,242.92,0,192.026,0,129.543S50.848,16.167,113.377,16.167
	s113.377,50.848,113.377,113.377S175.906,242.92,113.377,242.92z M113.377,29.909c-54.925,0-99.634,44.664-99.634,99.634
	s44.709,99.634,99.634,99.634s99.634-44.709,99.634-99.634S168.301,29.909,113.377,29.909z"/>
<polygon fill="#FFFFFF" points="95.099,23.038 95.099,0.5 131.654,0.5 131.654,20.244 "/>
<polygon fill="#FFFFFF" points="194.092,31.329 191.297,55.791 215.897,53.455 226.066,43.56 205.865,20.931 "/>
<circle fill="#FFFFFF" cx="113.377" cy="129.543" r="14.521"/>
<g>
	<rect x="108.05" y="42.5" fill="#FFFFFF" width="9.967" height="81.81"/>
</g>
</svg>
