<?xml version="1.0" encoding="utf-8"?>
<!-- Generator: Adobe Illustrator 17.0.2, SVG Export Plug-In . SVG Version: 6.00 Build 0)  -->
<!DOCTYPE svg PUBLIC "-//W3C//DTD SVG 1.1//EN" "http://www.w3.org/Graphics/SVG/1.1/DTD/svg11.dtd">
<svg version="1.1" id="Layer_1" xmlns="http://www.w3.org/2000/svg" xmlns:xlink="http://www.w3.org/1999/xlink" x="0px" y="0px"
	 width="226.066px" height="242.42px" viewBox="0 0 226.066 242.42" enable-background="new 0 0 226.066 242.42"
	 xml:space="preserve">
<path fill="#FFFFFF" d="M26.759,228.363l2.003-64.133C10.19,147.838,0,126.74,0,104.529C0,55.161,50.777,15,113.187,15
	c62.368,0,113.11,40.161,113.11,89.529c0,49.411-50.742,89.606-113.11,89.606c-14.868,0-29.177-2.207-42.583-6.567L26.759,228.363z
	 M113.187,26.79c-55.908,0-101.397,34.872-101.397,77.739c0,19.516,9.491,38.173,26.724,52.535l2.211,1.838l-1.301,41.57
	l28.351-26.375l3.374,1.201c13.107,4.675,27.254,7.047,42.038,7.047c55.866,0,101.32-34.907,101.32-77.816
	C214.507,61.663,169.053,26.79,113.187,26.79z"/>
</svg>
