<?xml version="1.0" encoding="utf-8"?>
<!-- Generator: Adobe Illustrator 17.0.2, SVG Export Plug-In . SVG Version: 6.00 Build 0)  -->
<!DOCTYPE svg PUBLIC "-//W3C//DTD SVG 1.1//EN" "http://www.w3.org/Graphics/SVG/1.1/DTD/svg11.dtd">
<svg version="1.1" id="Layer_1" xmlns="http://www.w3.org/2000/svg" xmlns:xlink="http://www.w3.org/1999/xlink" x="0px" y="0px"
	 width="49.5px" height="52.92px" viewBox="0 0 49.5 52.92" enable-background="new 0 0 49.5 52.92" xml:space="preserve">
<path fill="#FFFFFF" d="M24.75,52.92C11.1,52.92,0,41.81,0,28.17S11.1,3.42,24.75,3.42S49.5,14.52,49.5,28.17
	S38.4,52.92,24.75,52.92z M24.75,6.42C12.76,6.42,3,16.17,3,28.17s9.76,21.75,21.75,21.75S46.5,40.16,46.5,28.17
	S36.74,6.42,24.75,6.42z"/>
<polygon fill="#FFFFFF" points="20.76,4.92 20.76,0 28.74,0 28.74,4.31 "/>
<polygon fill="#FFFFFF" points="42.37,6.73 41.76,12.07 47.13,11.56 49.35,9.4 44.94,4.46 "/>
<circle fill="#FFFFFF" cx="24.75" cy="28.17" r="3.17"/>
</svg>
